<svg width="133" height="131" viewBox="0 0 133 131" fill="none" xmlns="http://www.w3.org/2000/svg">
<path d="M16.9 48.73C17.64 47.12 18.34 45.49 19.12 43.9C20.35 41.4 21.73 38.97 22.86 36.43C23.57 34.84 23.95 33.09 24.5 31.43C24.7 30.82 24.56 30.36 24.19 29.83C19.34 22.9 18.75 15.6 22.38 7.96001C22.41 7.90001 22.43 7.82001 22.48 7.78001C22.72 7.56001 22.95 7.22001 23.22 7.19001C23.39 7.17001 23.72 7.57001 23.81 7.83001C24.44 9.72001 25.15 11.59 25.61 13.52C27.25 20.37 26.99 27.19 24.95 33.94C24.9 34.09 24.86 34.25 24.93 34.47C25.56 33.65 26.24 32.86 26.81 32C28.94 28.79 30.74 25.4 32.28 21.87C32.46 21.45 32.47 21.11 32.3 20.68C29.41 13.44 31.43 5.32001 37.35 0.40001C37.61 0.19001 38 0.14001 38.32 0.0100098C38.41 0.35001 38.61 0.69001 38.58 1.01001C37.83 10.24 35.28 18.96 30.97 27.16C30.88 27.34 30.79 27.52 30.79 27.77C31.37 27.24 31.94 26.71 32.52 26.19C35.29 23.67 38.25 21.42 41.48 19.53C42.59 18.88 43.01 17.93 43.16 16.8C44.07 9.97001 47.7 5.24001 54.07 2.63001C54.45 2.47001 54.9 2.50001 55.32 2.44001C55.27 2.84001 55.29 3.26001 55.17 3.64001C53.29 9.47001 49.75 14.01 44.57 17.29C44.25 17.49 43.96 17.72 43.65 17.94L43.76 18.12C43.94 18.04 44.12 17.97 44.29 17.88C48.08 15.88 52.02 14.28 56.13 13.09C56.5 12.98 56.86 12.78 57.19 12.57C65.66 7.08001 74.33 6.75001 83.2 11.55C83.34 11.63 83.48 11.71 83.62 11.8C84.28 12.24 84.28 12.73 83.55 13.02C81.85 13.68 80.15 14.38 78.4 14.87C71.4 16.82 64.45 16.57 57.56 14.29C57.15 14.15 56.63 14.14 56.22 14.26C51.44 15.63 46.91 17.59 42.64 20.13C42.5 20.21 42.37 20.31 42.11 20.48C43.52 20.19 44.77 19.87 46.04 19.67C52.65 18.62 58.92 19.67 64.85 22.76C65.12 22.9 65.3 23.23 65.52 23.48C65.24 23.69 64.99 24 64.68 24.08C56.74 26.13 48.93 25.66 41.29 22.67C40.62 22.41 40.09 22.44 39.43 22.7C36.99 23.63 35.14 25.35 33.26 27.05C27.84 31.94 23.5 37.66 20.21 44.18C20.14 44.32 20.08 44.46 20.05 44.53C21.44 43.2 22.77 41.74 24.27 40.5C29.42 36.26 35.37 34.17 42.03 34.08C42.35 34.08 42.82 34.17 42.95 34.38C43.07 34.58 42.93 35.06 42.76 35.31C37.75 42.82 30.75 46.19 21.75 45.33C21.24 45.28 20.95 45.41 20.64 45.81C17.46 49.9 15.89 54.64 14.98 59.66C14.1 64.55 13.78 69.47 14.12 74.44C14.13 74.62 14.17 74.8 14.33 75.01C14.44 74.68 14.55 74.34 14.66 74.01C16.48 68.35 18.61 62.83 21.93 57.84C23.84 54.96 26.1 52.41 29.14 50.66C32 49.01 35.07 48.56 38.31 49.11C39.15 49.25 39.27 49.53 38.88 50.33C36.6 54.94 33.07 58.33 28.66 60.87C25.92 62.45 23.01 63.61 20 64.53C19.55 64.67 19.29 64.88 19.11 65.32C18.72 66.3 18.29 67.25 17.99 68.32C18.29 68.06 18.58 67.79 18.89 67.54C25.27 62.36 32.33 61.16 40.05 63.99C41.16 64.4 41.22 64.79 40.29 65.5C34.04 70.27 27.1 71.63 19.51 69.63C18.77 69.44 18.34 69.52 17.84 70.11C17.07 71.02 16.41 71.95 16.11 73.12C15.89 73.98 15.64 74.84 15.31 75.67C14.59 77.45 14.53 79.21 14.94 81.09C15.7 84.63 16.6 88.11 17.91 91.49C17.95 91.59 18.01 91.69 18.09 91.86C18.21 90.68 18.25 89.57 18.45 88.49C19.4 83.27 22.2 79.32 26.76 76.62C27.68 76.07 28.03 76.27 28.03 77.36C28.08 83.54 25.34 88.04 19.85 90.86C19.43 91.08 19.27 91.3 19.29 91.76C19.39 93.99 19.83 96.1 20.91 98.1C24.67 105.03 29.59 110.99 35.7 115.97C35.83 116.07 36.02 116.15 36.07 116.29C36.17 116.54 36.19 116.82 36.25 117.09C35.96 117.11 35.57 117.26 35.4 117.12C34.33 116.28 33.29 115.4 32.28 114.49C29.48 111.94 26.99 109.12 24.67 106.13C23.91 105.16 22.93 104.37 22.06 103.48C21.68 103.09 21.31 103.09 20.81 103.28C15.4 105.31 10.28 104.7 5.47 101.49C5.37 101.42 5.28 101.36 5.18 101.29C4.59 100.83 4.62 100.38 5.31 100.1C7.65 99.16 10.08 98.73 12.6 98.84C15.71 98.98 18.59 99.88 21.23 101.53C21.33 101.59 21.43 101.64 21.46 101.66C19.81 98.28 18.15 94.87 16.54 91.58C14.81 91.88 13.03 92.35 11.23 92.48C7.28 92.76 3.68 91.59 0.439999 89.34C0.209999 89.18 -0.0600011 88.8 -0.0200011 88.58C0.0199989 88.36 0.399999 88.12 0.679999 88.03C3.93 87.03 7.21 87.21 10.49 87.86C10.73 87.91 10.98 87.95 11.22 88L11 88.18C10 87.04 8.98 85.92 7.99 84.77C4.17 80.28 3.02 75.11 4.09 69.39C4.14 69.15 4.36 68.75 4.5 68.75C4.77 68.75 5.13 68.9 5.32 69.11C8.32 72.35 10.7 76.02 12.81 79.88C13.14 80.49 13.47 81.11 13.85 81.71C12.48 74.18 12.51 66.67 13.92 59.18C12.99 58.72 12.08 58.33 11.24 57.84C5.55 54.53 2.21 49.6 1.18 43.11C1.13 42.82 1.2 42.32 1.37 42.24C1.61 42.12 2.05 42.21 2.31 42.37C7.82 45.72 11.7 50.41 13.95 56.45C14.04 56.69 14.14 56.92 14.4 57.16C14.7 55.64 15.13 54.12 15.28 52.58C15.5 50.44 15.51 48.28 15.62 46.13C15.64 45.66 15.46 45.38 15.09 45.08C9.13 40.26 6.79 34.06 8 26.5C8 26.48 8 26.45 8.01 26.43C8.19 26.15 8.31 25.76 8.56 25.65C8.72 25.58 9.13 25.88 9.31 26.11C11.04 28.29 12.47 30.65 13.61 33.18C15.7 37.82 16.78 42.68 16.74 47.78C16.74 48.11 16.74 48.43 16.74 48.76H16.84L16.9 48.73Z" fill="white"/>
<path d="M131.12 71.4C130.79 54.23 125.1 40.37 113.75 28.88C113.65 28.78 113.49 28.7 113.46 28.58C113.39 28.3 113.24 27.91 113.36 27.73C113.61 27.37 113.97 27.54 114.26 27.81C114.33 27.88 114.39 27.94 114.46 28.01C124 37.58 129.88 49.02 131.58 62.43C133.92 80.88 128.81 97.14 116.29 110.88C106.87 121.23 95.02 127.3 81.18 129.43C77.02 130.07 72.83 130.2 68.63 129.95C68.51 129.95 68.36 129.97 68.29 129.91C68.06 129.73 67.86 129.52 67.64 129.32C67.88 129.15 68.11 128.84 68.35 128.84C69.47 128.83 70.6 128.93 71.72 128.94C87.81 128.98 101.75 123.51 113.33 112.35C122.76 103.26 128.36 92.11 130.38 79.19C130.83 76.28 130.94 73.32 131.12 71.41V71.4Z" fill="white"/>
<path d="M50.3 85.4C50.3 85 50.3 84.7 50.3 84.4C50.3 74.81 50.3 65.22 50.32 55.64C50.32 54.93 50.15 54.65 49.43 54.75C49.11 54.8 48.77 54.78 48.45 54.75C48.32 54.74 48.2 54.61 48.07 54.54C48.2 54.45 48.34 54.29 48.47 54.28C50.39 54.26 52.31 54.25 54.24 54.29C54.47 54.29 54.77 54.61 54.89 54.86C57.02 59.4 59.12 63.95 61.24 68.5C62.3 70.77 63.35 73.05 64.41 75.32C64.49 75.48 64.57 75.64 64.76 75.99V54.76C64.17 54.76 63.61 54.78 63.06 54.75C62.9 54.75 62.74 54.59 62.59 54.5C62.74 54.42 62.88 54.28 63.03 54.28C64.39 54.26 65.75 54.26 67.11 54.28C67.27 54.28 67.42 54.45 67.57 54.54C67.42 54.61 67.28 54.74 67.13 54.75C66.57 54.78 66.01 54.76 65.36 54.76V85.86L65.11 85.99C64.93 85.77 64.68 85.57 64.57 85.32C63.16 82.31 61.76 79.29 60.36 76.27C57.32 69.7 54.27 63.13 51.23 56.56C51.14 56.37 51.04 56.2 50.86 55.84V85.4C51.42 85.4 52 85.38 52.57 85.41C52.73 85.41 52.88 85.58 53.04 85.67C52.88 85.75 52.71 85.91 52.55 85.91C51.21 85.93 49.88 85.93 48.54 85.91C48.39 85.91 48.24 85.73 48.09 85.63C48.24 85.55 48.38 85.41 48.53 85.41C49.09 85.38 49.65 85.4 50.33 85.4H50.3Z" fill="white"/>
<path d="M90.84 54.7C90.24 54.7 89.7 54.72 89.16 54.69C88.99 54.69 88.83 54.54 88.66 54.46C88.83 54.36 89.01 54.18 89.18 54.17C91.27 54.15 93.35 54.16 95.44 54.16C95.91 54.16 96.38 54.14 96.84 54.18C96.97 54.19 97.08 54.37 97.2 54.48C97.08 54.55 96.96 54.69 96.83 54.69C96.25 54.71 95.66 54.7 95.02 54.7V85.13C96.62 85.13 98.23 85.29 99.78 85.09C101.7 84.84 102.97 83.13 103.11 81.1C103.12 80.9 103.29 80.7 103.38 80.51C103.45 80.71 103.58 80.91 103.59 81.1C103.61 82.62 103.59 84.13 103.59 85.74H102.75C98.32 85.74 93.89 85.74 89.46 85.74C89.34 85.74 89.21 85.77 89.11 85.74C88.95 85.67 88.8 85.56 88.65 85.46C88.8 85.38 88.94 85.25 89.09 85.24C89.65 85.21 90.21 85.23 90.83 85.23V54.7H90.84Z" fill="white"/>
<path d="M76.61 70.09C76.61 61.63 76.61 53.17 76.61 44.7C76.61 44.19 76.43 43.47 77.23 43.45C78.09 43.43 77.91 44.19 77.91 44.71C77.91 61.66 77.91 78.61 77.91 95.55C77.91 95.74 77.96 95.97 77.87 96.1C77.7 96.34 77.45 96.68 77.24 96.68C77.03 96.68 76.77 96.33 76.62 96.08C76.53 95.92 76.59 95.67 76.59 95.46C76.59 87 76.59 78.54 76.59 70.07L76.61 70.09Z" fill="white"/>
</svg>
